<svg xmlns="http://www.w3.org/2000/svg" width="150" height="150" viewBox="0 0 150 150"><g fill="#1C1A1B"><rect x="0" y="0" width="6" height="6"/><rect x="0" y="6" width="6" height="6"/><rect x="0" y="12" width="6" height="6"/><rect x="0" y="18" width="6" height="6"/><rect x="0" y="24" width="6" height="6"/><rect x="0" y="30" width="6" height="6"/><rect x="0" y="36" width="6" height="6"/><rect x="0" y="48" width="6" height="6"/><rect x="0" y="54" width="6" height="6"/><rect x="0" y="66" width="6" height="6"/><rect x="0" y="78" width="6" height="6"/><rect x="0" y="84" width="6" height="6"/><rect x="0" y="96" width="6" height="6"/><rect x="0" y="108" width="6" height="6"/><rect x="0" y="114" width="6" height="6"/><rect x="0" y="120" width="6" height="6"/><rect x="0" y="126" width="6" height="6"/><rect x="0" y="132" width="6" height="6"/><rect x="0" y="138" width="6" height="6"/><rect x="0" y="144" width="6" height="6"/><rect x="6" y="0" width="6" height="6"/><rect x="6" y="36" width="6" height="6"/><rect x="6" y="48" width="6" height="6"/><rect x="6" y="54" width="6" height="6"/><rect x="6" y="60" width="6" height="6"/><rect x="6" y="66" width="6" height="6"/><rect x="6" y="78" width="6" height="6"/><rect x="6" y="84" width="6" height="6"/><rect x="6" y="108" width="6" height="6"/><rect x="6" y="144" width="6" height="6"/><rect x="12" y="0" width="6" height="6"/><rect x="12" y="12" width="6" height="6"/><rect x="12" y="18" width="6" height="6"/><rect x="12" y="24" width="6" height="6"/><rect x="12" y="36" width="6" height="6"/><rect x="12" y="54" width="6" height="6"/><rect x="12" y="66" width="6" height="6"/><rect x="12" y="78" width="6" height="6"/><rect x="12" y="84" width="6" height="6"/><rect x="12" y="90" width="6" height="6"/><rect x="12" y="96" width="6" height="6"/><rect x="12" y="108" width="6" height="6"/><rect x="12" y="120" width="6" height="6"/><rect x="12" y="126" width="6" height="6"/><rect x="12" y="132" width="6" height="6"/><rect x="12" y="144" width="6" height="6"/><rect x="18" y="0" width="6" height="6"/><rect x="18" y="12" width="6" height="6"/><rect x="18" y="18" width="6" height="6"/><rect x="18" y="24" width="6" height="6"/><rect x="18" y="36" width="6" height="6"/><rect x="18" y="54" width="6" height="6"/><rect x="18" y="72" width="6" height="6"/><rect x="18" y="84" width="6" height="6"/><rect x="18" y="90" width="6" height="6"/><rect x="18" y="96" width="6" height="6"/><rect x="18" y="108" width="6" height="6"/><rect x="18" y="120" width="6" height="6"/><rect x="18" y="126" width="6" height="6"/><rect x="18" y="132" width="6" height="6"/><rect x="18" y="144" width="6" height="6"/><rect x="24" y="0" width="6" height="6"/><rect x="24" y="12" width="6" height="6"/><rect x="24" y="18" width="6" height="6"/><rect x="24" y="24" width="6" height="6"/><rect x="24" y="36" width="6" height="6"/><rect x="24" y="54" width="6" height="6"/><rect x="24" y="60" width="6" height="6"/><rect x="24" y="72" width="6" height="6"/><rect x="24" y="78" width="6" height="6"/><rect x="24" y="96" width="6" height="6"/><rect x="24" y="108" width="6" height="6"/><rect x="24" y="120" width="6" height="6"/><rect x="24" y="126" width="6" height="6"/><rect x="24" y="132" width="6" height="6"/><rect x="24" y="144" width="6" height="6"/><rect x="30" y="0" width="6" height="6"/><rect x="30" y="36" width="6" height="6"/><rect x="30" y="72" width="6" height="6"/><rect x="30" y="84" width="6" height="6"/><rect x="30" y="90" width="6" height="6"/><rect x="30" y="108" width="6" height="6"/><rect x="30" y="144" width="6" height="6"/><rect x="36" y="0" width="6" height="6"/><rect x="36" y="6" width="6" height="6"/><rect x="36" y="12" width="6" height="6"/><rect x="36" y="18" width="6" height="6"/><rect x="36" y="24" width="6" height="6"/><rect x="36" y="30" width="6" height="6"/><rect x="36" y="36" width="6" height="6"/><rect x="36" y="48" width="6" height="6"/><rect x="36" y="54" width="6" height="6"/><rect x="36" y="60" width="6" height="6"/><rect x="36" y="90" width="6" height="6"/><rect x="36" y="108" width="6" height="6"/><rect x="36" y="114" width="6" height="6"/><rect x="36" y="120" width="6" height="6"/><rect x="36" y="126" width="6" height="6"/><rect x="36" y="132" width="6" height="6"/><rect x="36" y="138" width="6" height="6"/><rect x="36" y="144" width="6" height="6"/><rect x="42" y="60" width="6" height="6"/><rect x="42" y="78" width="6" height="6"/><rect x="42" y="90" width="6" height="6"/><rect x="48" y="18" width="6" height="6"/><rect x="48" y="24" width="6" height="6"/><rect x="48" y="36" width="6" height="6"/><rect x="48" y="42" width="6" height="6"/><rect x="48" y="48" width="6" height="6"/><rect x="48" y="54" width="6" height="6"/><rect x="48" y="60" width="6" height="6"/><rect x="48" y="72" width="6" height="6"/><rect x="48" y="78" width="6" height="6"/><rect x="48" y="84" width="6" height="6"/><rect x="48" y="96" width="6" height="6"/><rect x="48" y="102" width="6" height="6"/><rect x="48" y="132" width="6" height="6"/><rect x="48" y="138" width="6" height="6"/><rect x="48" y="144" width="6" height="6"/><rect x="54" y="12" width="6" height="6"/><rect x="54" y="18" width="6" height="6"/><rect x="54" y="24" width="6" height="6"/><rect x="54" y="30" width="6" height="6"/><rect x="54" y="36" width="6" height="6"/><rect x="54" y="48" width="6" height="6"/><rect x="54" y="54" width="6" height="6"/><rect x="54" y="60" width="6" height="6"/><rect x="54" y="66" width="6" height="6"/><rect x="54" y="108" width="6" height="6"/><rect x="54" y="138" width="6" height="6"/><rect x="54" y="144" width="6" height="6"/><rect x="60" y="0" width="6" height="6"/><rect x="60" y="12" width="6" height="6"/><rect x="60" y="18" width="6" height="6"/><rect x="60" y="24" width="6" height="6"/><rect x="60" y="30" width="6" height="6"/><rect x="60" y="36" width="6" height="6"/><rect x="60" y="42" width="6" height="6"/><rect x="60" y="48" width="6" height="6"/><rect x="60" y="54" width="6" height="6"/><rect x="60" y="60" width="6" height="6"/><rect x="60" y="66" width="6" height="6"/><rect x="60" y="72" width="6" height="6"/><rect x="60" y="90" width="6" height="6"/><rect x="60" y="96" width="6" height="6"/><rect x="60" y="102" width="6" height="6"/><rect x="60" y="108" width="6" height="6"/><rect x="60" y="114" width="6" height="6"/><rect x="60" y="132" width="6" height="6"/><rect x="60" y="138" width="6" height="6"/><rect x="60" y="144" width="6" height="6"/><rect x="66" y="0" width="6" height="6"/><rect x="66" y="6" width="6" height="6"/><rect x="66" y="12" width="6" height="6"/><rect x="66" y="24" width="6" height="6"/><rect x="66" y="30" width="6" height="6"/><rect x="66" y="48" width="6" height="6"/><rect x="66" y="60" width="6" height="6"/><rect x="66" y="90" width="6" height="6"/><rect x="66" y="96" width="6" height="6"/><rect x="66" y="102" width="6" height="6"/><rect x="66" y="126" width="6" height="6"/><rect x="66" y="132" width="6" height="6"/><rect x="72" y="24" width="6" height="6"/><rect x="72" y="36" width="6" height="6"/><rect x="72" y="42" width="6" height="6"/><rect x="72" y="48" width="6" height="6"/><rect x="72" y="54" width="6" height="6"/><rect x="72" y="60" width="6" height="6"/><rect x="72" y="78" width="6" height="6"/><rect x="72" y="102" width="6" height="6"/><rect x="72" y="108" width="6" height="6"/><rect x="72" y="114" width="6" height="6"/><rect x="72" y="120" width="6" height="6"/><rect x="72" y="126" width="6" height="6"/><rect x="78" y="0" width="6" height="6"/><rect x="78" y="18" width="6" height="6"/><rect x="78" y="48" width="6" height="6"/><rect x="78" y="54" width="6" height="6"/><rect x="78" y="66" width="6" height="6"/><rect x="78" y="84" width="6" height="6"/><rect x="78" y="90" width="6" height="6"/><rect x="78" y="108" width="6" height="6"/><rect x="78" y="114" width="6" height="6"/><rect x="78" y="120" width="6" height="6"/><rect x="78" y="138" width="6" height="6"/><rect x="84" y="12" width="6" height="6"/><rect x="84" y="24" width="6" height="6"/><rect x="84" y="30" width="6" height="6"/><rect x="84" y="60" width="6" height="6"/><rect x="84" y="78" width="6" height="6"/><rect x="84" y="84" width="6" height="6"/><rect x="84" y="90" width="6" height="6"/><rect x="84" y="96" width="6" height="6"/><rect x="84" y="108" width="6" height="6"/><rect x="84" y="114" width="6" height="6"/><rect x="84" y="120" width="6" height="6"/><rect x="84" y="132" width="6" height="6"/><rect x="84" y="138" width="6" height="6"/><rect x="90" y="6" width="6" height="6"/><rect x="90" y="36" width="6" height="6"/><rect x="90" y="42" width="6" height="6"/><rect x="90" y="48" width="6" height="6"/><rect x="90" y="54" width="6" height="6"/><rect x="90" y="66" width="6" height="6"/><rect x="90" y="72" width="6" height="6"/><rect x="90" y="90" width="6" height="6"/><rect x="90" y="114" width="6" height="6"/><rect x="90" y="126" width="6" height="6"/><rect x="90" y="132" width="6" height="6"/><rect x="96" y="18" width="6" height="6"/><rect x="96" y="48" width="6" height="6"/><rect x="96" y="60" width="6" height="6"/><rect x="96" y="90" width="6" height="6"/><rect x="96" y="114" width="6" height="6"/><rect x="96" y="120" width="6" height="6"/><rect x="96" y="126" width="6" height="6"/><rect x="96" y="132" width="6" height="6"/><rect x="96" y="138" width="6" height="6"/><rect x="96" y="144" width="6" height="6"/><rect x="102" y="66" width="6" height="6"/><rect x="102" y="84" width="6" height="6"/><rect x="102" y="102" width="6" height="6"/><rect x="102" y="114" width="6" height="6"/><rect x="102" y="120" width="6" height="6"/><rect x="102" y="138" width="6" height="6"/><rect x="102" y="144" width="6" height="6"/><rect x="108" y="0" width="6" height="6"/><rect x="108" y="6" width="6" height="6"/><rect x="108" y="12" width="6" height="6"/><rect x="108" y="18" width="6" height="6"/><rect x="108" y="24" width="6" height="6"/><rect x="108" y="30" width="6" height="6"/><rect x="108" y="36" width="6" height="6"/><rect x="108" y="54" width="6" height="6"/><rect x="108" y="60" width="6" height="6"/><rect x="108" y="66" width="6" height="6"/><rect x="108" y="78" width="6" height="6"/><rect x="108" y="90" width="6" height="6"/><rect x="108" y="96" width="6" height="6"/><rect x="108" y="102" width="6" height="6"/><rect x="108" y="120" width="6" height="6"/><rect x="108" y="144" width="6" height="6"/><rect x="114" y="0" width="6" height="6"/><rect x="114" y="36" width="6" height="6"/><rect x="114" y="48" width="6" height="6"/><rect x="114" y="54" width="6" height="6"/><rect x="114" y="66" width="6" height="6"/><rect x="114" y="72" width="6" height="6"/><rect x="114" y="78" width="6" height="6"/><rect x="114" y="96" width="6" height="6"/><rect x="114" y="102" width="6" height="6"/><rect x="114" y="126" width="6" height="6"/><rect x="114" y="132" width="6" height="6"/><rect x="114" y="144" width="6" height="6"/><rect x="120" y="0" width="6" height="6"/><rect x="120" y="12" width="6" height="6"/><rect x="120" y="18" width="6" height="6"/><rect x="120" y="24" width="6" height="6"/><rect x="120" y="36" width="6" height="6"/><rect x="120" y="48" width="6" height="6"/><rect x="120" y="72" width="6" height="6"/><rect x="120" y="84" width="6" height="6"/><rect x="120" y="96" width="6" height="6"/><rect x="120" y="102" width="6" height="6"/><rect x="120" y="120" width="6" height="6"/><rect x="120" y="126" width="6" height="6"/><rect x="120" y="138" width="6" height="6"/><rect x="120" y="144" width="6" height="6"/><rect x="126" y="0" width="6" height="6"/><rect x="126" y="12" width="6" height="6"/><rect x="126" y="18" width="6" height="6"/><rect x="126" y="24" width="6" height="6"/><rect x="126" y="36" width="6" height="6"/><rect x="126" y="48" width="6" height="6"/><rect x="126" y="54" width="6" height="6"/><rect x="126" y="60" width="6" height="6"/><rect x="126" y="66" width="6" height="6"/><rect x="126" y="72" width="6" height="6"/><rect x="126" y="84" width="6" height="6"/><rect x="126" y="96" width="6" height="6"/><rect x="126" y="102" width="6" height="6"/><rect x="126" y="108" width="6" height="6"/><rect x="126" y="114" width="6" height="6"/><rect x="126" y="120" width="6" height="6"/><rect x="126" y="138" width="6" height="6"/><rect x="126" y="144" width="6" height="6"/><rect x="132" y="0" width="6" height="6"/><rect x="132" y="12" width="6" height="6"/><rect x="132" y="18" width="6" height="6"/><rect x="132" y="24" width="6" height="6"/><rect x="132" y="36" width="6" height="6"/><rect x="132" y="54" width="6" height="6"/><rect x="132" y="66" width="6" height="6"/><rect x="132" y="72" width="6" height="6"/><rect x="132" y="84" width="6" height="6"/><rect x="132" y="108" width="6" height="6"/><rect x="132" y="132" width="6" height="6"/><rect x="132" y="138" width="6" height="6"/><rect x="132" y="144" width="6" height="6"/><rect x="138" y="0" width="6" height="6"/><rect x="138" y="36" width="6" height="6"/><rect x="138" y="48" width="6" height="6"/><rect x="138" y="54" width="6" height="6"/><rect x="138" y="66" width="6" height="6"/><rect x="138" y="72" width="6" height="6"/><rect x="138" y="78" width="6" height="6"/><rect x="138" y="102" width="6" height="6"/><rect x="138" y="108" width="6" height="6"/><rect x="138" y="114" width="6" height="6"/><rect x="138" y="120" width="6" height="6"/><rect x="138" y="126" width="6" height="6"/><rect x="138" y="132" width="6" height="6"/><rect x="138" y="138" width="6" height="6"/><rect x="144" y="0" width="6" height="6"/><rect x="144" y="6" width="6" height="6"/><rect x="144" y="12" width="6" height="6"/><rect x="144" y="18" width="6" height="6"/><rect x="144" y="24" width="6" height="6"/><rect x="144" y="30" width="6" height="6"/><rect x="144" y="36" width="6" height="6"/><rect x="144" y="60" width="6" height="6"/><rect x="144" y="72" width="6" height="6"/><rect x="144" y="78" width="6" height="6"/><rect x="144" y="84" width="6" height="6"/><rect x="144" y="90" width="6" height="6"/><rect x="144" y="96" width="6" height="6"/><rect x="144" y="108" width="6" height="6"/><rect x="144" y="120" width="6" height="6"/><rect x="144" y="126" width="6" height="6"/><rect x="144" y="132" width="6" height="6"/><rect x="144" y="138" width="6" height="6"/><rect x="144" y="144" width="6" height="6"/></g></svg>